# xmcd
#
# Track frame offsets:
#	150
#	11367
#	27406
#	48362
#	66366
#	85204
#	103649
#	123704
#	143024
#	159753
#	176010
#	195240
#
# Disc length: 2820 seconds
#
# Revision: 0
# Processed by: cddbd v1.5.2PL0 Copyright (c) Steve Scherf et al.
# Submitted via: dBpowerAMP V4.0
#
DISCID=950b020c
DTITLE=Mia Borders - Magnolia BlueMagnolia
DYEAR=2010
DGENRE=Blues
TTITLE0=Magnolia Blue
TTITLE1=Fly
TTITLE2=These Roads
TTITLE3=I Can
TTITLE4=Uncompromising
TTITLE5=She Doesn't Know
TTITLE6=Try Me On
TTITLE7=Just Another Day
TTITLE8=Yesterday
TTITLE9=13 Minutes
TTITLE10=Love Song
TTITLE11=U I Adore
EXTD=
EXTT0=
EXTT1=
EXTT2=
EXTT3=
EXTT4=
EXTT5=
EXTT6=
EXTT7=
EXTT8=
EXTT9=
EXTT10=
EXTT11=
PLAYORDER=
